<?xml version="1.0" encoding="UTF-8" standalone="no"?>
<svg
   xmlns:dc="http://purl.org/dc/elements/1.1/"
   xmlns:cc="http://creativecommons.org/ns#"
   xmlns:rdf="http://www.w3.org/1999/02/22-rdf-syntax-ns#"
   xmlns:svg="http://www.w3.org/2000/svg"
   xmlns="http://www.w3.org/2000/svg"
   xmlns:xlink="http://www.w3.org/1999/xlink"
   xmlns:sodipodi="http://sodipodi.sourceforge.net/DTD/sodipodi-0.dtd"
   xmlns:inkscape="http://www.inkscape.org/namespaces/inkscape"
   viewBox="0 0 502.06981 250.39416"
   version="1.1"
   id="svg83"
   sodipodi:docname="logo-dark.svg"
   width="502.06982"
   height="250.39417"
   inkscape:version="0.92.4 (5da689c313, 2019-01-14)">
  <metadata
     id="metadata87">
    <rdf:RDF>
      <cc:Work
         rdf:about="">
        <dc:format>image/svg+xml</dc:format>
        <dc:type
           rdf:resource="http://purl.org/dc/dcmitype/StillImage" />
        <dc:title>Tavola disegno 18 copia</dc:title>
      </cc:Work>
    </rdf:RDF>
  </metadata>
  <sodipodi:namedview
     pagecolor="#ffffff"
     bordercolor="#666666"
     borderopacity="1"
     objecttolerance="10"
     gridtolerance="10"
     guidetolerance="10"
     inkscape:pageopacity="0"
     inkscape:pageshadow="2"
     inkscape:window-width="2560"
     inkscape:window-height="1033"
     id="namedview85"
     showgrid="false"
     scale-x="2"
     inkscape:zoom="1.3088434"
     inkscape:cx="204.86859"
     inkscape:cy="69.036136"
     inkscape:window-x="0"
     inkscape:window-y="26"
     inkscape:window-maximized="1"
     inkscape:current-layer="loghi-3"
     fit-margin-top="0"
     fit-margin-left="0"
     fit-margin-right="0"
     fit-margin-bottom="0" />
  <defs
     id="defs58">
    <style
       id="style2">.cls-1{fill:#fa58ae;}.cls-2{fill:url(#Sfumatura_senza_nome_201);}.cls-3{fill:url(#Sfumatura_senza_nome_201-2);}.cls-4{fill:url(#Sfumatura_senza_nome_202);}.cls-5{fill:url(#Sfumatura_senza_nome_203);}</style>
    <linearGradient
       id="Sfumatura_senza_nome_201"
       x1="111.05"
       y1="101.57"
       x2="150.63"
       y2="101.57"
       gradientUnits="userSpaceOnUse">
      <stop
         offset="0"
         stop-color="#8e3661"
         id="stop4" />
      <stop
         offset="0.15"
         stop-color="#bd4582"
         id="stop6" />
      <stop
         offset="0.23"
         stop-color="#c54888"
         id="stop8" />
      <stop
         offset="0.44"
         stop-color="#d54d94"
         id="stop10" />
      <stop
         offset="0.56"
         stop-color="#dc4f99"
         id="stop12" />
      <stop
         offset="0.73"
         stop-color="#f055a7"
         id="stop14" />
      <stop
         offset="0.77"
         stop-color="#f557ab"
         id="stop16" />
      <stop
         offset="0.81"
         stop-color="#f858ad"
         id="stop18" />
      <stop
         offset="1"
         stop-color="#fa58ae"
         id="stop20" />
    </linearGradient>
    <linearGradient
       id="Sfumatura_senza_nome_201-2"
       x1="184.97"
       y1="101.89"
       x2="224.56"
       y2="101.89"
       xlink:href="#Sfumatura_senza_nome_201" />
    <linearGradient
       id="Sfumatura_senza_nome_202"
       x1="264.98001"
       y1="79.129997"
       x2="291.51001"
       y2="66.32"
       gradientUnits="userSpaceOnUse">
      <stop
         offset="0"
         stop-color="#8e3661"
         id="stop24" />
      <stop
         offset="0.16"
         stop-color="#bd4582"
         id="stop26" />
      <stop
         offset="0.33"
         stop-color="#cd4a8e"
         id="stop28" />
      <stop
         offset="0.39"
         stop-color="#d54d94"
         id="stop30" />
      <stop
         offset="0.49"
         stop-color="#e1519c"
         id="stop32" />
      <stop
         offset="0.7"
         stop-color="#f557ab"
         id="stop34" />
      <stop
         offset="1"
         stop-color="#fa58ae"
         id="stop36" />
    </linearGradient>
    <linearGradient
       id="Sfumatura_senza_nome_203"
       x1="258.69"
       y1="90.650002"
       x2="312.85999"
       y2="108.87"
       gradientUnits="userSpaceOnUse">
      <stop
         offset="0"
         stop-color="#8e3661"
         id="stop39" />
      <stop
         offset="0.15"
         stop-color="#bd4582"
         id="stop41" />
      <stop
         offset="0.23"
         stop-color="#c54888"
         id="stop43" />
      <stop
         offset="0.44"
         stop-color="#d54d94"
         id="stop45" />
      <stop
         offset="0.56"
         stop-color="#dc4f99"
         id="stop47" />
      <stop
         offset="0.73"
         stop-color="#f055a7"
         id="stop49" />
      <stop
         offset="0.77"
         stop-color="#f557ab"
         id="stop51" />
      <stop
         offset="0.79"
         stop-color="#f858ad"
         id="stop53" />
      <stop
         offset="0.87"
         stop-color="#fa58ae"
         id="stop55" />
    </linearGradient>
  </defs>
  <title
     id="title60">Tavola disegno 18 copia</title>
  <g
     transform="matrix(1.5753591,0,0,1.5753591,-23.643467,-10.60108)"
     id="loghi-3">
    <path
       inkscape:connector-curvature="0"
       class="cls-1"
       d="m 329.37,78.48 a 7.24,7.24 0 0 0 -9.52,3.74 28.68,28.68 0 0 1 -3.85,6.37 25.7,25.7 0 0 1 -9.2,7.41 22.25,22.25 0 0 1 -5,1.69 c -0.29,0.07 -0.58,0.12 -0.87,0.18 a 26.37,26.37 0 0 1 -10.42,-0.43 c 0.77,-0.35 1.55,-0.77 2.34,-1.19 A 30,30 0 0 0 305,84.2 c 2.91,-5.67 3.05,-11.69 0.38,-16.52 -2.91,-5.27 -8.57,-8.19 -15.14,-8.49 a 30.06,30.06 0 0 0 -15.77,4 31.59,31.59 0 0 0 -5.25,3.59 v 0 l -0.14,0.11 a 26.09,26.09 0 0 1 1.46,-4.9 l 4.6,-10.15 2.79,-6.18 13,-28.7 A 7.2506896,7.2506896 0 1 0 277.71,11 l -13.26,29.35 -2.45,5.41 -4.75,10.45 -0.1,0.24 a 38.54,38.54 0 0 0 3.19,36 c 0.65,1 1.39,2.06 2.13,3 a 0.25,0.25 0 0 0 0,0.06 c 0.49,0.61 1,1.21 1.49,1.81 a 42.76,42.76 0 0 0 11.1,9.32 43.68,43.68 0 0 0 21.81,6 33.52,33.52 0 0 0 5.45,-0.42 36.91,36.91 0 0 0 7.79,-2 39.72,39.72 0 0 0 17.15,-12.7 42.55,42.55 0 0 0 5.85,-9.52 7.24,7.24 0 0 0 -3.74,-9.52 z m -54.59,3.18 a 12.08,12.08 0 0 1 2.43,-3.18 16.57,16.57 0 0 1 4.07,-3.06 17.18,17.18 0 0 1 6.87,-2.18 9.9,9.9 0 0 1 2.86,0.15 3.05,3.05 0 0 1 2.11,1.08 c 0.35,0.65 0.12,1.92 -0.58,3.31 A 15.94,15.94 0 0 1 286,84 a 18.78,18.78 0 0 1 -3.83,1.6 c -4.13,1.21 -7.39,0.47 -8,-0.67 a 0.67,0.67 0 0 1 -0.1,-0.28 4.77,4.77 0 0 1 0.71,-2.99 z"
       id="path331"
       style="fill:#ffffff" />
    <path
       inkscape:connector-curvature="0"
       class="cls-1"
       d="m 66.29,66.07 v 0.2 a 7.25,7.25 0 0 1 -6.73,7.19 l -1.06,0.1 A 23.14,23.14 0 0 0 55.05,74.24 26.8,26.8 0 0 0 37.81,89 l -9.18,19.91 a 6.87,6.87 0 0 1 -6.24,4 h -0.2 a 7.17,7.17 0 0 1 -6.51,-10.2 l 1,-2.08 5.82,-13 3,-6.64 c 0,0 6.3,-17.9 31.35,-21.74 0,0 0.75,-0.08 1.85,-0.17 a 7.07,7.07 0 0 1 7.59,6.99 z"
       id="path333"
       style="fill:#ffffff" />
    <path
       inkscape:connector-curvature="0"
       class="cls-1"
       d="m 242.49,75.38 a 21,21 0 0 0 -14.3,-14.76 c -6.5,-2.11 -14.16,-1.77 -21.64,0.92 C 196,65.38 188,73 184.5,81.59 l -3.14,7 -0.07,0.13 -14.64,32.66 -15.49,34.62 a 6.8,6.8 0 0 0 3.76,9.1 7.39,7.39 0 0 0 9.46,-3.63 L 179.92,126.9 189,106.69 a 22.43,22.43 0 0 0 8.48,5 27.41,27.41 0 0 0 5.07,1.12 35.79,35.79 0 0 0 16.58,-2.06 40.85,40.85 0 0 0 9.49,-4.91 37.62,37.62 0 0 0 8.89,-8.68 c 4.96,-6.84 6.75,-14.77 4.98,-21.78 z M 227.56,88 a 22.31,22.31 0 0 1 -5.56,5.32 28.89,28.89 0 0 1 -6.44,3.34 c -4.95,1.79 -10.07,2.08 -14.05,0.78 -3.09,-1 -5.2,-2.87 -5.75,-5.11 0,-0.12 0,-0.25 -0.07,-0.37 -0.92,-5 4.93,-12.89 14.48,-16.35 a 24.35,24.35 0 0 1 11.13,-1.43 18,18 0 0 1 2.94,0.64 c 3.09,1 5.18,2.87 5.75,5.11 0.57,2.24 -0.33,5.16 -2.43,8.07 z"
       id="path335"
       style="fill:#ffffff" />
    <path
       inkscape:connector-curvature="0"
       class="cls-1"
       d="M 168.57,75.05 A 21,21 0 0 0 154.27,60.3 c -6.49,-2.13 -14.16,-1.79 -21.63,0.91 -10.54,3.85 -18.53,11.48 -22.06,20.05 L 77.19,156 a 6.79,6.79 0 0 0 3.81,9.1 7.31,7.31 0 0 0 9.46,-3.64 l 24.68,-55.11 a 22.66,22.66 0 0 0 8.48,5 l 0.29,0.08 q 1,0.3 2,0.54 c 0.92,0.21 1.88,0.37 2.84,0.49 a 35.75,35.75 0 0 0 16.57,-2.05 q 0.69,-0.24 1.38,-0.54 c 0.47,-0.17 0.93,-0.37 1.37,-0.58 a 26.93,26.93 0 0 0 2.64,-1.3 c 0.39,-0.19 0.77,-0.41 1.16,-0.64 a 15.76,15.76 0 0 0 1.38,-0.83 l 1.14,-0.75 a 3.41,3.41 0 0 0 0.42,-0.28 37.36,37.36 0 0 0 8.89,-8.66 c 4.85,-6.83 6.65,-14.77 4.87,-21.78 z m -14.92,12.6 a 23.2,23.2 0 0 1 -5.59,5.35 15.41,15.41 0 0 1 -1.51,1 26.63,26.63 0 0 1 -4.93,2.36 c -5,1.79 -10.08,2.08 -14.06,0.78 -3.08,-1 -5.19,-2.87 -5.74,-5.11 a 2.45,2.45 0 0 1 -0.08,-0.37 5.51,5.51 0 0 1 -0.07,-1.58 c 0.38,-5 6,-11.66 14.55,-14.76 a 24.24,24.24 0 0 1 11.13,-1.44 16.73,16.73 0 0 1 3,0.66 c 3.08,1 5.18,2.85 5.74,5.09 0.56,2.24 -0.35,5.12 -2.44,8.02 z"
       id="path337"
       style="fill:#ffffff" />
    <path
       inkscape:connector-curvature="0"
       class="cls-1"
       d="M 92.23,69.54 A 11.06,11.06 0 1 1 103.29,58.48 11.07,11.07 0 0 1 92.23,69.54 Z m 0,-16.8 A 5.74,5.74 0 1 0 98,58.48 5.75,5.75 0 0 0 92.23,52.74 Z"
       id="path339"
       style="fill:#ffffff" />
    <path
       inkscape:connector-curvature="0"
       class="cls-1"
       d="m 83.63,100.78 a 11,11 0 1 1 -11,-11 11.05,11.05 0 0 1 11,11 z"
       id="path341"
       style="fill:#ffffff" />
  </g>
</svg>
