<?xml version="1.0" encoding="utf-8"?>
<!-- Generator: Adobe Illustrator 17.0.0, SVG Export Plug-In . SVG Version: 6.00 Build 0)  -->
<!DOCTYPE svg PUBLIC "-//W3C//DTD SVG 1.1//EN" "http://www.w3.org/Graphics/SVG/1.1/DTD/svg11.dtd">
<svg version="1.1" id="Livello_1" xmlns="http://www.w3.org/2000/svg" xmlns:xlink="http://www.w3.org/1999/xlink" x="0px" y="0px"
	 width="392.549px" height="72.674px" viewBox="0 0 392.549 72.674" enable-background="new 0 0 392.549 72.674"
	 xml:space="preserve">
<path d="M2.55,53.997v16.58l-1.417,1.985L0,70.577V0h22.462c7.606,0,13.369,1.571,17.29,4.712c3.921,3.143,5.882,7.878,5.882,14.207
	c0,4.016-1.229,7.632-3.686,10.843c-2.457,3.213-5.833,5.291-10.133,6.236l-1.985,0.638c1.04,2.222,4.062,7.867,9.072,16.936
	c5.007,9.07,7.888,14.551,8.644,16.441v2.55l-2.196-1.205c-1.133-1.794-4.3-7.487-9.495-17.076l-9.142-16.725
	c-0.047-0.142-0.093-0.188-0.14-0.142h-0.072c-0.284,0-1.11,0-2.48,0H2.55C2.55,38.784,2.55,44.313,2.55,53.997z M12.259,34.792
	h9.707c7.369,0,12.72-1.487,16.05-4.463c3.33-2.976,4.996-6.78,4.996-11.41c0-5.384-1.689-9.447-5.065-12.187
	c-3.378-2.739-8.539-4.109-15.484-4.109H2.55v32.169C3.401,34.792,6.636,34.792,12.259,34.792z"/>
<path d="M215.891,37.951h9.779c6.848,0,11.938-1.64,15.27-4.926c3.33-3.283,4.996-7.476,4.996-12.578
	c0-5.242-1.654-9.505-4.961-12.79c-3.309-3.283-8.409-4.923-15.305-4.923h-19.489v35.217
	C206.985,37.951,210.221,37.951,215.891,37.951z M206.182,40.574c0,1.275,0,6.354,0,15.235v15.235l-1.275,1.629l-1.345-1.629V0.111
	h22.109c7.511,0,13.202,1.806,17.076,5.421c3.874,3.613,5.812,8.562,5.812,14.845c0,6.285-1.938,11.22-5.812,14.81
	s-9.565,5.386-17.076,5.386h-19.489V40.574z"/>
<path d="M369.307,36.181h-18.211v33.801h41.453l1.345,1.487l-1.345,1.205h-44.148V0.112h44.148l1.345,1.417l-1.345,1.275h-41.453
	v30.683h36.351l1.133,1.417l-1.133,1.277C385.934,36.181,379.887,36.181,369.307,36.181z"/>
<path opacity="0.8" enable-background="new    " d="M97.785,67.972l-3.028-14.913l1.309-8.075h0.025l-0.177-18.099l1.862-15.956
	l-0.213-0.025l0.088-0.105L85.719,0.868L85.617,0.99l-0.091-0.075l-9.773,11.878l0.127,0.105l-0.197,0.051l5.061,19.506
	l-4.661,15.083l0.156,0.048l-0.108,0.075l8.797,12.562l-6.16,9.638l0.366,0.235l-0.006,0.03l0.076,0.015l0.166,0.107l0.042-0.066
	l6.158,1.188l0.088-0.47l-5.969-1.151l5.97-9.34l-0.301-0.193l0.293-0.205l-8.339-11.907l7.941,2.426l0.209-0.684l-8.539-2.609
	l4.393-14.215l3.848,2.475l0.386-0.6l-4.127-2.655l-4.84-18.651l8.399,4.793l0.354-0.621l-8.676-4.95l9.059-11.01l11.159,9.288
	L86.15,21.126l0.139,0.149l-0.079,0.132l8.934,5.367l-8.996,8.5l0.244,0.259l-0.006,0.006l8.647,9.231l-8.459,1.733l0.072,0.349
	l-0.223,0.279l7.524,6.041l-8.176,17.54l0.534,0.25l0.063,0.248l11.347-2.867l-0.086-0.339L97.785,67.972z M87.172,21.148
	l9.756-9.126l-1.634,14.005L87.172,21.148z M87.154,35.307l8.053-7.609l0.161,16.377L87.154,35.307z M87.466,47.046l7.801-1.599
	l-1.128,6.956L87.466,47.046z M86.715,70.384L94.259,54.2l2.758,13.581L86.715,70.384z"/>
<path opacity="0.8" enable-background="new    " d="M163.723,36.409l0.227,0.136l0.368-0.612l-0.337-0.202l-1.702-12.814
	l8.162-8.065l-0.503-0.51l-7.964,7.869L150.003,2.005l-0.429,0.255l-0.105-0.047l-0.066,0.149l-0.014,0.008l0.006,0.01
	l-8.513,19.082l-10.151-19.92l-0.638,0.323l10.277,20.168l-9.611,17.994l0.631,0.337l0.056-0.105l10.745,15.469l-12.385,14.896
	l0.275,0.228l0.192,0.302l27.925-17.797l-0.041-0.065l0.131-0.023l-0.006-0.031l0.022,0.014l6.366-9.582l-0.019-0.013l0.075-0.01
	L163.723,36.409z M157.868,52.619l-14.551,2.592l7.351-14.373l7.252,11.281l-0.03,0.468L157.868,52.619z M159.443,39.613
	l4.373,4.054l-5.132,7.724L159.443,39.613z M142.245,22.68l19.341,0.456l1.61,12.123L142.245,22.68z M161.264,22.414l-19.815-0.468
	l8.393-18.813L161.264,22.414z M140.841,22.67l22.475,13.494l0.01,0.076l-0.341,0.047l0.896,6.465l-4.38-4.059l0.007-0.112
	l-0.714-0.047l-0.798,12.384l-7.065-10.99l-0.3,0.193l-0.319-0.163l-7.719,15.095l-10.77-15.502L140.841,22.67z M142.883,56.014
	l13.623-2.427L131.82,69.32L142.883,56.014z"/>
<path opacity="0.8" enable-background="new    " d="M317.196,71.644l0.558-0.447l-8.654-10.79l2.233-17.354h0.023V25.071h-0.045
	l-6.498-20.82l-0.054,0.017l0.022-0.302l-24.224-1.662l-0.026,0.356l-0.212,0.287l14.086,10.408l-13.239-1.546l-1.158-2.275
	l-0.638,0.323l7.126,13.995l-6.051,8.758l0.345,0.24l-0.001,0.001l0.007,0.003l0.235,0.163l0.031-0.045l15.791,7.053l-7.555,15.638
	l-8.595-14.396l-0.614,0.368l8.81,14.756l-8.512,14.137l0.614,0.368l8.36-13.884l11.713,14.132l-0.051,0.075l0.257,0.174l0.21,0.254
	l0.074-0.061l0.049,0.033l0.116-0.171l0.31-0.257l-0.074-0.09l6.785-9.989L317.196,71.644z M310.023,25.4l-10.088,8.186
	l-11.914-9.293L310.023,25.4z M300.076,34.613l9.494,7.737l-11.732-2.749L300.076,34.613z M309.852,24.675l-22.186-1.116
	l8.082-9.212L309.852,24.675z M299.5,34.151l-2.223,4.955l-8.894-13.626L299.5,34.151z M310.579,43.323l-2.067,16.059
	l-10.475-19.001L310.579,43.323z M310.639,42.3l-10.131-8.256l10.131-8.221V42.3z M296.231,13.813l8.082-8.757l5.938,19.025
	L296.231,13.813z M303.751,4.611l-8.1,8.777L281.727,3.1L303.751,4.611z M286.99,23.247l-5.435-10.674l13.424,1.567L286.99,23.247z
	 M286.902,24.52l9.469,14.508l-14.895-6.653L286.902,24.52z M307.935,59.82l-18.108-3.609l7.528-15.582L307.935,59.82z
	 M308.23,60.609l-6.739,9.922l-11.183-13.494L308.23,60.609z"/>
<path opacity="0.8" enable-background="new    " d="M239.145,36.298l0.226,0.135l0.368-0.612l-0.338-0.203l-1.702-12.812
	l8.164-8.066l-0.503-0.51l-7.965,7.869L225.424,1.893l-0.428,0.254l-0.103-0.046l-0.065,0.146l-0.019,0.011l0.008,0.013
	l-8.514,19.08L206.151,1.43l-0.638,0.323l10.278,20.169l-9.61,17.993l0.628,0.337l0.057-0.107l10.746,15.472l-12.386,14.896
	l0.275,0.228l0.193,0.302l27.928-17.797l-0.042-0.065l0.13-0.023l-0.006-0.031l0.022,0.014l6.364-9.581l-0.019-0.013l0.075-0.01
	L239.145,36.298z M233.291,52.508L218.739,55.1l7.352-14.373l7.252,11.281l-0.03,0.468L233.291,52.508z M234.863,39.499l4.374,4.055
	l-5.133,7.729L234.863,39.499z M217.666,22.568l19.342,0.457l1.611,12.123L217.666,22.568z M236.685,22.303l-19.816-0.468
	l8.395-18.812L236.685,22.303z M216.261,22.558l22.477,13.495l0.01,0.076l-0.341,0.047l0.896,6.466l-4.381-4.06l0.007-0.112
	l-0.712-0.047l-0.797,12.384l-7.065-10.99l-0.3,0.193l-0.319-0.163l-7.721,15.094l-10.77-15.504L216.261,22.558z M218.305,55.902
	l13.623-2.426l-24.686,15.731L218.305,55.902z"/>
<path opacity="0.8" enable-background="new    " d="M12.674,52.177l19.573-4.882l-0.172-0.693l-20.808,5.191l-0.245-0.067
	L4.195,36.209l-0.26,0.115l5.39-16.001l16.401,15.646l-0.619,1.016l0.61,0.372L42.593,9.66l-0.305-0.186L42.18,9.133L10.164,19.305
	L21.528,1.586L20.925,1.2L9.336,19.27L1.748,6.72L1.136,7.09l7.636,12.629l-5.84,17.337l0.677,0.228l0.12-0.356l6.741,15.321
	L1.713,69.271l0.318,0.163l0.087,0.347l37.723-9.479l-0.087-0.347l0.094-0.344L12.674,52.177z M10.1,20.076l31.384-9.974
	L26.105,35.343L10.1,20.076z M38.347,59.939L2.71,68.894l8.399-16.327l0.149-0.037L38.347,59.939z"/>
<path opacity="0.8" enable-background="new    " d="M382.512,47.669l0.321-0.158l-6.115-12.293l4.579-13.956l-0.125-0.041
	l0.062-0.038l0.079,0.009l0.007-0.062l0.03-0.018l-0.023-0.038l2.255-19.081l-0.712-0.084l-2.147,18.17L369.587,1.764l-0.305,0.186
	l-0.337-0.12l-7.076,19.963L350.627,5.027l-0.596,0.398l11.553,17.23l-10.683,11.804l0.53,0.479l10.74-11.868l13.691,12.233
	l-13.966,20.719l-0.123-0.163l-10.822-18.426l-0.614,0.363L361.3,56.463l-8.034,15.686l0.638,0.326l7.89-15.405l11.312,14.938
	l0.568-0.433l-1.24-1.637l10.4-22.119L382.512,47.669z M382.023,47.49l-19.012,8.158l13.274-19.692L382.023,47.49z M380.4,21.703
	l-4.237,12.914l-13.038-11.65L380.4,21.703z M362.448,22.3l6.92-19.52l11.069,18.205L362.448,22.3z M362.4,56.688l19.389-8.32
	l-9.84,20.928L362.4,56.688z"/>
<path d="M86.289,71.894l-0.638,0.779l-1.347-1.629V1.386l1.347-1.133l1.275,1.133v69.658C86.88,71.138,86.666,71.421,86.289,71.894z
	"/>
<path d="M140.352,37.951h9.779c6.848,0,11.938-1.64,15.27-4.926c3.33-3.283,4.995-7.476,4.995-12.578
	c0-5.242-1.654-9.505-4.961-12.79c-3.309-3.283-8.409-4.923-15.305-4.923h-19.489v35.217
	C131.445,37.951,134.681,37.951,140.352,37.951z M130.642,40.574c0,1.275,0,6.354,0,15.235v15.235l-1.275,1.629l-1.345-1.629V0.111
	h22.109c7.511,0,13.202,1.806,17.076,5.421c3.874,3.613,5.812,8.562,5.812,14.845c0,6.285-1.938,11.22-5.812,14.81
	s-9.565,5.386-17.076,5.386h-19.489V40.574z"/>
<path d="M299.435,70.051h18.283l1.063,1.347l-1.063,1.275h-39.329V1.245l1.347-1.133l1.345,1.133v68.806
	C282.594,70.051,288.711,70.051,299.435,70.051z"/>
</svg>
